<?xml version="1.0" encoding="utf-8"?>
<!-- Generator: Adobe Illustrator 17.1.0, SVG Export Plug-In . SVG Version: 6.00 Build 0)  -->
<!DOCTYPE svg PUBLIC "-//W3C//DTD SVG 1.1//EN" "http://www.w3.org/Graphics/SVG/1.1/DTD/svg11.dtd">
<svg version="1.1" id="Capa_1" xmlns="http://www.w3.org/2000/svg" xmlns:xlink="http://www.w3.org/1999/xlink" x="0px" y="0px"
	 viewBox="0 0 600 600" enable-background="new 0 0 600 600" xml:space="preserve">
<g>
	<g>
		<circle cx="300" cy="300" r="300"/>
	</g>
	<g>
		<g>
			<path fill="#FFFFFF" d="M479.3,345.8h-20.7l-17.9-36.5h-12.9v36.5H410v-91.5h35.9c9.1,0,16.4,2.7,21.9,8.2
				c5.2,5.2,7.8,11.8,7.8,19.8c0,6.1-1.7,11.3-5,15.7c-3,3.9-6.9,6.6-11.7,8.4L479.3,345.8z M457.7,282.2c0-3.6-1.2-6.5-3.6-8.7
				c-2.4-2.2-5.5-3.3-9.4-3.3h-16.8v24h16.8c3.9,0,7-1.1,9.4-3.3C456.5,288.7,457.7,285.8,457.7,282.2z"/>
		</g>
		<g>
			<path fill="#FFFFFF" d="M190,345.8h-20.7l-17.9-36.5h-12.9v36.5h-17.9v-91.5h35.9c9.1,0,16.4,2.7,21.9,8.2
				c5.2,5.2,7.8,11.8,7.8,19.8c0,6.1-1.7,11.3-5,15.7c-3,3.9-6.9,6.6-11.7,8.4L190,345.8z M168.4,282.2c0-3.6-1.2-6.5-3.6-8.7
				c-2.4-2.2-5.5-3.3-9.4-3.3h-16.8v24h16.8c3.9,0,7-1.1,9.4-3.3C167.2,288.7,168.4,285.8,168.4,282.2z"/>
		</g>
	</g>
	<g>
		<g>
			<path fill="#FFFFFF" d="M333.7,161.8c-1.5,9.3-5.4,16.5-11.7,21.6c-5.9,4.9-13.2,7.3-22,7.3c-9.8,0-18-3.3-24.7-10
				c-4.1-4.1-6.8-9.4-8-15.8c-0.7-3.8-1-10.7-1-20.7c0-10,0.3-16.9,1-20.7c1.2-6.4,3.9-11.7,8-15.8c6.7-6.7,14.9-10,24.7-10
				c8.8,0,16.3,2.5,22.3,7.5c6,5,9.8,12.1,11.4,21.5h-18.1c-2.1-8.7-7.3-13-15.4-13c-5.4,0-9.6,2-12.5,6c-2.3,3.3-3.5,11.4-3.5,24.6
				c0,7.1,0.1,11.6,0.3,13.4c0.6,5.7,2,9.9,4.2,12.5c2.8,3.2,6.6,4.8,11.4,4.8c8.1,0,13.3-4.3,15.4-13H333.7z"/>
		</g>
		<g>
			<path fill="#FFFFFF" d="M329.7,502.3h-59.4v-91.5h17.9v75.6h41.5V502.3z"/>
		</g>
	</g>
	<path fill="#FFFFFF" d="M302.7,300l130-130c0.8-0.8,0.8-2,0-2.7c-0.8-0.8-2-0.8-2.7,0l-130,130l-130-130c-0.8-0.8-2-0.8-2.7,0
		c-0.8,0.8-0.8,2,0,2.7l130,130l-130,130c-0.8,0.8-0.8,2,0,2.7c0.4,0.4,0.9,0.6,1.4,0.6c0.5,0,1-0.2,1.4-0.6l130-130l130,130
		c0.4,0.4,0.9,0.6,1.4,0.6s1-0.2,1.4-0.6c0.8-0.8,0.8-2,0-2.7L302.7,300z"/>
	<path fill="#FFFFFF" d="M300,48.9c33.9,0,66.8,6.6,97.7,19.7c29.9,12.6,56.8,30.8,79.8,53.8c23.1,23.1,41.2,49.9,53.8,79.8
		c13.1,31,19.7,63.8,19.7,97.7s-6.6,66.8-19.7,97.7c-12.6,29.9-30.8,56.8-53.8,79.8c-23.1,23.1-49.9,41.2-79.8,53.8
		c-31,13.1-63.8,19.7-97.7,19.7s-66.8-6.6-97.7-19.7c-29.9-12.6-56.8-30.8-79.8-53.8c-23.1-23.1-41.2-49.9-53.8-79.8
		c-13.1-31-19.7-63.8-19.7-97.7s6.6-66.8,19.7-97.7c12.6-29.9,30.8-56.8,53.8-79.8c23.1-23.1,49.9-41.2,79.8-53.8
		C233.2,55.5,266.1,48.9,300,48.9 M300,44C158.6,44,44,158.6,44,300s114.6,256,256,256s256-114.6,256-256S441.4,44,300,44L300,44z"
		/>
</g>
</svg>
